<?xml version="1.0" encoding="UTF-8" standalone="no"?>
<!DOCTYPE svg PUBLIC "-//W3C//DTD SVG 1.1//EN"
 "http://www.w3.org/Graphics/SVG/1.1/DTD/svg11.dtd">
<!-- Generated by graphviz version 2.47.0 (20210316.0004)
 -->
<!-- Title: dependencies Pages: 1 -->
<svg width="1069pt" height="284pt"
 viewBox="0.00 0.00 1069.00 284.00" xmlns="http://www.w3.org/2000/svg" xmlns:xlink="http://www.w3.org/1999/xlink">
<g id="graph0" class="graph" transform="scale(1 1) rotate(0) translate(4 280)">
<title>dependencies</title>
<polygon fill="white" stroke="transparent" points="-4,4 -4,-280 1065,-280 1065,4 -4,4"/>
<text text-anchor="start" x="509.51" y="-42.4" font-family="sans-serif" font-weight="bold" font-size="14.00">Legend</text>
<polygon fill="#ffffb3" stroke="transparent" points="296.5,-10 296.5,-30 316.5,-30 316.5,-10 296.5,-10"/>
<text text-anchor="start" x="320.13" y="-15.4" font-family="sans-serif" font-size="14.00"> &#160;Declarations</text>
<polygon fill="#8dd3c7" stroke="transparent" points="409.5,-10 409.5,-30 429.5,-30 429.5,-10 409.5,-10"/>
<text text-anchor="start" x="433.23" y="-15.4" font-family="sans-serif" font-size="14.00"> &#160;Module</text>
<polygon fill="#80b1d3" stroke="transparent" points="495.5,-10 495.5,-30 515.5,-30 515.5,-10 495.5,-10"/>
<text text-anchor="start" x="519.28" y="-15.4" font-family="sans-serif" font-size="14.00"> &#160;Bootstrap</text>
<polygon fill="#fdb462" stroke="transparent" points="592.5,-10 592.5,-30 612.5,-30 612.5,-10 592.5,-10"/>
<text text-anchor="start" x="616.17" y="-15.4" font-family="sans-serif" font-size="14.00"> &#160;Providers</text>
<polygon fill="#fb8072" stroke="transparent" points="688.5,-10 688.5,-30 708.5,-30 708.5,-10 688.5,-10"/>
<text text-anchor="start" x="712.23" y="-15.4" font-family="sans-serif" font-size="14.00"> &#160;Exports</text>
<g id="clust1" class="cluster">
<title>cluster_PaymentsModule</title>
<polygon fill="none" stroke="black" stroke-dasharray="1,5" points="8,-70 8,-268 1053,-268 1053,-70 8,-70"/>
</g>
<g id="clust4" class="cluster">
<title>cluster_PaymentsModule_imports</title>
<polygon fill="none" stroke="black" points="176,-78 176,-130 1045,-130 1045,-78 176,-78"/>
</g>
<g id="clust5" class="cluster">
<title>cluster_PaymentsModule_exports</title>
<polygon fill="none" stroke="black" points="439,-208 439,-260 557,-260 557,-208 439,-208"/>
</g>
<g id="clust2" class="cluster">
<title>cluster_PaymentsModule_declarations</title>
<polygon fill="none" stroke="black" points="16,-78 16,-130 168,-130 168,-78 16,-78"/>
</g>
<!-- PaymentsComponent -->
<g id="node1" class="node">
<title>PaymentsComponent</title>
<polygon fill="#ffffb3" stroke="black" points="159.77,-122 24.23,-122 24.23,-86 159.77,-86 159.77,-122"/>
<text text-anchor="middle" x="92" y="-99.8" font-family="Times,serif" font-size="14.00">PaymentsComponent</text>
</g>
<!-- PaymentsModule -->
<g id="node2" class="node">
<title>PaymentsModule</title>
<polygon fill="#8dd3c7" stroke="black" points="554.99,-187 551.99,-191 530.99,-191 527.99,-187 441.01,-187 441.01,-151 554.99,-151 554.99,-187"/>
<text text-anchor="middle" x="498" y="-164.8" font-family="Times,serif" font-size="14.00">PaymentsModule</text>
</g>
<!-- PaymentsComponent&#45;&gt;PaymentsModule -->
<g id="edge1" class="edge">
<title>PaymentsComponent&#45;&gt;PaymentsModule</title>
<path fill="none" stroke="black" d="M92,-122.28C92,-143.32 92,-175 92,-175 92,-175 430.69,-175 430.69,-175"/>
<polygon fill="black" stroke="black" points="430.69,-178.5 440.69,-175 430.69,-171.5 430.69,-178.5"/>
</g>
<!-- RouterModule  -->
<g id="node9" class="node">
<title>RouterModule </title>
<polygon fill="#fb8072" stroke="black" points="548.65,-252 447.35,-252 447.35,-216 548.65,-216 548.65,-252"/>
<text text-anchor="middle" x="498" y="-229.8" font-family="Times,serif" font-size="14.00">RouterModule </text>
</g>
<!-- PaymentsModule&#45;&gt;RouterModule  -->
<g id="edge8" class="edge">
<title>PaymentsModule&#45;&gt;RouterModule </title>
<path fill="none" stroke="black" stroke-dasharray="5,2" d="M498,-187.11C498,-187.11 498,-205.99 498,-205.99"/>
<polygon fill="black" stroke="black" points="494.5,-205.99 498,-215.99 501.5,-205.99 494.5,-205.99"/>
</g>
<!-- CommonModule -->
<g id="node3" class="node">
<title>CommonModule</title>
<polygon fill="#8dd3c7" stroke="black" points="1036.67,-122 1033.67,-126 1012.67,-126 1009.67,-122 925.33,-122 925.33,-86 1036.67,-86 1036.67,-122"/>
<text text-anchor="middle" x="981" y="-99.8" font-family="Times,serif" font-size="14.00">CommonModule</text>
</g>
<!-- CommonModule&#45;&gt;PaymentsModule -->
<g id="edge2" class="edge">
<title>CommonModule&#45;&gt;PaymentsModule</title>
<path fill="none" stroke="black" d="M981,-122.28C981,-143.32 981,-175 981,-175 981,-175 565.3,-175 565.3,-175"/>
<polygon fill="black" stroke="black" points="565.3,-171.5 555.3,-175 565.3,-178.5 565.3,-171.5"/>
</g>
<!-- RouterModule.forChild(args) -->
<g id="node4" class="node">
<title>RouterModule.forChild(args)</title>
<polygon fill="#8dd3c7" stroke="black" points="907.73,-122 904.73,-126 883.73,-126 880.73,-122 726.27,-122 726.27,-86 907.73,-86 907.73,-122"/>
<text text-anchor="middle" x="817" y="-99.8" font-family="Times,serif" font-size="14.00">RouterModule.forChild(args)</text>
</g>
<!-- RouterModule.forChild(args)&#45;&gt;PaymentsModule -->
<g id="edge3" class="edge">
<title>RouterModule.forChild(args)&#45;&gt;PaymentsModule</title>
<path fill="none" stroke="black" d="M817,-122.02C817,-139.37 817,-163 817,-163 817,-163 565.03,-163 565.03,-163"/>
<polygon fill="black" stroke="black" points="565.03,-159.5 555.03,-163 565.03,-166.5 565.03,-159.5"/>
</g>
<!-- ReactiveFormsModule -->
<g id="node5" class="node">
<title>ReactiveFormsModule</title>
<polygon fill="#8dd3c7" stroke="black" points="708.3,-122 705.3,-126 684.3,-126 681.3,-122 563.7,-122 563.7,-86 708.3,-86 708.3,-122"/>
<text text-anchor="middle" x="636" y="-99.8" font-family="Times,serif" font-size="14.00">ReactiveFormsModule</text>
</g>
<!-- ReactiveFormsModule&#45;&gt;PaymentsModule -->
<g id="edge4" class="edge">
<title>ReactiveFormsModule&#45;&gt;PaymentsModule</title>
<path fill="none" stroke="black" d="M563.72,-104C555.68,-104 550.33,-104 550.33,-104 550.33,-104 550.33,-140.89 550.33,-140.89"/>
<polygon fill="black" stroke="black" points="546.83,-140.89 550.33,-150.89 553.83,-140.89 546.83,-140.89"/>
</g>
<!-- FormsModule -->
<g id="node6" class="node">
<title>FormsModule</title>
<polygon fill="#8dd3c7" stroke="black" points="545.83,-122 542.83,-126 521.83,-126 518.83,-122 450.17,-122 450.17,-86 545.83,-86 545.83,-122"/>
<text text-anchor="middle" x="498" y="-99.8" font-family="Times,serif" font-size="14.00">FormsModule</text>
</g>
<!-- FormsModule&#45;&gt;PaymentsModule -->
<g id="edge5" class="edge">
<title>FormsModule&#45;&gt;PaymentsModule</title>
<path fill="none" stroke="black" d="M498,-122.11C498,-122.11 498,-140.99 498,-140.99"/>
<polygon fill="black" stroke="black" points="494.5,-140.99 498,-150.99 501.5,-140.99 494.5,-140.99"/>
</g>
<!-- CodeBoxModule -->
<g id="node7" class="node">
<title>CodeBoxModule</title>
<polygon fill="#8dd3c7" stroke="black" points="432.44,-122 429.44,-126 408.44,-126 405.44,-122 319.56,-122 319.56,-86 432.44,-86 432.44,-122"/>
<text text-anchor="middle" x="376" y="-99.8" font-family="Times,serif" font-size="14.00">CodeBoxModule</text>
</g>
<!-- CodeBoxModule&#45;&gt;PaymentsModule -->
<g id="edge6" class="edge">
<title>CodeBoxModule&#45;&gt;PaymentsModule</title>
<path fill="none" stroke="black" d="M432.24,-104C440.16,-104 445.67,-104 445.67,-104 445.67,-104 445.67,-140.89 445.67,-140.89"/>
<polygon fill="black" stroke="black" points="442.17,-140.89 445.67,-150.89 449.17,-140.89 442.17,-140.89"/>
</g>
<!-- AltarInputModule -->
<g id="node8" class="node">
<title>AltarInputModule</title>
<polygon fill="#8dd3c7" stroke="black" points="301.86,-122 298.86,-126 277.86,-126 274.86,-122 184.14,-122 184.14,-86 301.86,-86 301.86,-122"/>
<text text-anchor="middle" x="243" y="-99.8" font-family="Times,serif" font-size="14.00">AltarInputModule</text>
</g>
<!-- AltarInputModule&#45;&gt;PaymentsModule -->
<g id="edge7" class="edge">
<title>AltarInputModule&#45;&gt;PaymentsModule</title>
<path fill="none" stroke="black" d="M243,-122.02C243,-139.37 243,-163 243,-163 243,-163 430.77,-163 430.77,-163"/>
<polygon fill="black" stroke="black" points="430.77,-166.5 440.77,-163 430.77,-159.5 430.77,-166.5"/>
</g>
</g>
</svg>
