<?xml version="1.0" encoding="UTF-8" standalone="no"?>
<!DOCTYPE svg PUBLIC "-//W3C//DTD SVG 1.1//EN"
 "http://www.w3.org/Graphics/SVG/1.1/DTD/svg11.dtd">
<!-- Generated by graphviz version 2.47.0 (20210316.0004)
 -->
<!-- Title: dependencies Pages: 1 -->
<svg width="504pt" height="284pt"
 viewBox="0.00 0.00 504.00 284.00" xmlns="http://www.w3.org/2000/svg" xmlns:xlink="http://www.w3.org/1999/xlink">
<g id="graph0" class="graph" transform="scale(1 1) rotate(0) translate(4 280)">
<title>dependencies</title>
<polygon fill="white" stroke="transparent" points="-4,4 -4,-280 500,-280 500,4 -4,4"/>
<text text-anchor="start" x="227.01" y="-42.4" font-family="sans-serif" font-weight="bold" font-size="14.00">Legend</text>
<polygon fill="#ffffb3" stroke="transparent" points="14,-10 14,-30 34,-30 34,-10 14,-10"/>
<text text-anchor="start" x="37.63" y="-15.4" font-family="sans-serif" font-size="14.00"> &#160;Declarations</text>
<polygon fill="#8dd3c7" stroke="transparent" points="127,-10 127,-30 147,-30 147,-10 127,-10"/>
<text text-anchor="start" x="150.73" y="-15.4" font-family="sans-serif" font-size="14.00"> &#160;Module</text>
<polygon fill="#80b1d3" stroke="transparent" points="213,-10 213,-30 233,-30 233,-10 213,-10"/>
<text text-anchor="start" x="236.78" y="-15.4" font-family="sans-serif" font-size="14.00"> &#160;Bootstrap</text>
<polygon fill="#fdb462" stroke="transparent" points="310,-10 310,-30 330,-30 330,-10 310,-10"/>
<text text-anchor="start" x="333.67" y="-15.4" font-family="sans-serif" font-size="14.00"> &#160;Providers</text>
<polygon fill="#fb8072" stroke="transparent" points="406,-10 406,-30 426,-30 426,-10 406,-10"/>
<text text-anchor="start" x="429.73" y="-15.4" font-family="sans-serif" font-size="14.00"> &#160;Exports</text>
<g id="clust1" class="cluster">
<title>cluster_TopbarModule</title>
<polygon fill="none" stroke="black" stroke-dasharray="1,5" points="48,-70 48,-268 448,-268 448,-70 48,-70"/>
</g>
<g id="clust2" class="cluster">
<title>cluster_TopbarModule_declarations</title>
<polygon fill="none" stroke="black" points="302,-78 302,-130 440,-130 440,-78 302,-78"/>
</g>
<g id="clust5" class="cluster">
<title>cluster_TopbarModule_exports</title>
<polygon fill="none" stroke="black" points="162,-208 162,-260 304,-260 304,-208 162,-208"/>
</g>
<g id="clust4" class="cluster">
<title>cluster_TopbarModule_imports</title>
<polygon fill="none" stroke="black" points="56,-78 56,-130 294,-130 294,-78 56,-78"/>
</g>
<!-- TopbarComponent -->
<g id="node1" class="node">
<title>TopbarComponent</title>
<polygon fill="#ffffb3" stroke="black" points="431.76,-122 310.24,-122 310.24,-86 431.76,-86 431.76,-122"/>
<text text-anchor="middle" x="371" y="-99.8" font-family="Times,serif" font-size="14.00">TopbarComponent</text>
</g>
<!-- TopbarModule -->
<g id="node2" class="node">
<title>TopbarModule</title>
<polygon fill="#8dd3c7" stroke="black" points="282.98,-187 279.98,-191 258.98,-191 255.98,-187 183.02,-187 183.02,-151 282.98,-151 282.98,-187"/>
<text text-anchor="middle" x="233" y="-164.8" font-family="Times,serif" font-size="14.00">TopbarModule</text>
</g>
<!-- TopbarComponent&#45;&gt;TopbarModule -->
<g id="edge1" class="edge">
<title>TopbarComponent&#45;&gt;TopbarModule</title>
<path fill="none" stroke="black" d="M371,-122.11C371,-141.34 371,-169 371,-169 371,-169 293.21,-169 293.21,-169"/>
<polygon fill="black" stroke="black" points="293.21,-165.5 283.21,-169 293.21,-172.5 293.21,-165.5"/>
</g>
<!-- TopbarComponent  -->
<g id="node5" class="node">
<title>TopbarComponent </title>
<polygon fill="#fb8072" stroke="black" points="295.76,-252 170.24,-252 170.24,-216 295.76,-216 295.76,-252"/>
<text text-anchor="middle" x="233" y="-229.8" font-family="Times,serif" font-size="14.00">TopbarComponent </text>
</g>
<!-- TopbarModule&#45;&gt;TopbarComponent  -->
<g id="edge4" class="edge">
<title>TopbarModule&#45;&gt;TopbarComponent </title>
<path fill="none" stroke="black" stroke-dasharray="5,2" d="M233,-187.11C233,-187.11 233,-205.99 233,-205.99"/>
<polygon fill="black" stroke="black" points="229.5,-205.99 233,-215.99 236.5,-205.99 229.5,-205.99"/>
</g>
<!-- BrowserModule -->
<g id="node3" class="node">
<title>BrowserModule</title>
<polygon fill="#8dd3c7" stroke="black" points="286.47,-122 283.47,-126 262.47,-126 259.47,-122 179.53,-122 179.53,-86 286.47,-86 286.47,-122"/>
<text text-anchor="middle" x="233" y="-99.8" font-family="Times,serif" font-size="14.00">BrowserModule</text>
</g>
<!-- BrowserModule&#45;&gt;TopbarModule -->
<g id="edge2" class="edge">
<title>BrowserModule&#45;&gt;TopbarModule</title>
<path fill="none" stroke="black" d="M233,-122.11C233,-122.11 233,-140.99 233,-140.99"/>
<polygon fill="black" stroke="black" points="229.5,-140.99 233,-150.99 236.5,-140.99 229.5,-140.99"/>
</g>
<!-- RouterModule -->
<g id="node4" class="node">
<title>RouterModule</title>
<polygon fill="#8dd3c7" stroke="black" points="161.65,-122 158.65,-126 137.65,-126 134.65,-122 64.35,-122 64.35,-86 161.65,-86 161.65,-122"/>
<text text-anchor="middle" x="113" y="-99.8" font-family="Times,serif" font-size="14.00">RouterModule</text>
</g>
<!-- RouterModule&#45;&gt;TopbarModule -->
<g id="edge3" class="edge">
<title>RouterModule&#45;&gt;TopbarModule</title>
<path fill="none" stroke="black" d="M113,-122.11C113,-141.34 113,-169 113,-169 113,-169 172.8,-169 172.8,-169"/>
<polygon fill="black" stroke="black" points="172.8,-172.5 182.8,-169 172.8,-165.5 172.8,-172.5"/>
</g>
</g>
</svg>
