<?xml version="1.0" encoding="UTF-8" standalone="no"?>
<!DOCTYPE svg PUBLIC "-//W3C//DTD SVG 1.1//EN"
 "http://www.w3.org/Graphics/SVG/1.1/DTD/svg11.dtd">
<!-- Generated by graphviz version 2.47.0 (20210316.0004)
 -->
<!-- Title: dependencies Pages: 1 -->
<svg width="504pt" height="284pt"
 viewBox="0.00 0.00 504.00 284.00" xmlns="http://www.w3.org/2000/svg" xmlns:xlink="http://www.w3.org/1999/xlink">
<g id="graph0" class="graph" transform="scale(1 1) rotate(0) translate(4 280)">
<title>dependencies</title>
<polygon fill="white" stroke="transparent" points="-4,4 -4,-280 500,-280 500,4 -4,4"/>
<text text-anchor="start" x="227.01" y="-42.4" font-family="sans-serif" font-weight="bold" font-size="14.00">Legend</text>
<polygon fill="#ffffb3" stroke="transparent" points="14,-10 14,-30 34,-30 34,-10 14,-10"/>
<text text-anchor="start" x="37.63" y="-15.4" font-family="sans-serif" font-size="14.00"> &#160;Declarations</text>
<polygon fill="#8dd3c7" stroke="transparent" points="127,-10 127,-30 147,-30 147,-10 127,-10"/>
<text text-anchor="start" x="150.73" y="-15.4" font-family="sans-serif" font-size="14.00"> &#160;Module</text>
<polygon fill="#80b1d3" stroke="transparent" points="213,-10 213,-30 233,-30 233,-10 213,-10"/>
<text text-anchor="start" x="236.78" y="-15.4" font-family="sans-serif" font-size="14.00"> &#160;Bootstrap</text>
<polygon fill="#fdb462" stroke="transparent" points="310,-10 310,-30 330,-30 330,-10 310,-10"/>
<text text-anchor="start" x="333.67" y="-15.4" font-family="sans-serif" font-size="14.00"> &#160;Providers</text>
<polygon fill="#fb8072" stroke="transparent" points="406,-10 406,-30 426,-30 426,-10 406,-10"/>
<text text-anchor="start" x="429.73" y="-15.4" font-family="sans-serif" font-size="14.00"> &#160;Exports</text>
<g id="clust1" class="cluster">
<title>cluster_CodeBoxModule</title>
<polygon fill="none" stroke="black" stroke-dasharray="1,5" points="97,-70 97,-268 399,-268 399,-70 97,-70"/>
</g>
<g id="clust5" class="cluster">
<title>cluster_CodeBoxModule_exports</title>
<polygon fill="none" stroke="black" points="171,-208 171,-260 325,-260 325,-208 171,-208"/>
</g>
<g id="clust4" class="cluster">
<title>cluster_CodeBoxModule_imports</title>
<polygon fill="none" stroke="black" points="263,-78 263,-130 391,-130 391,-78 263,-78"/>
</g>
<g id="clust2" class="cluster">
<title>cluster_CodeBoxModule_declarations</title>
<polygon fill="none" stroke="black" points="105,-78 105,-130 255,-130 255,-78 105,-78"/>
</g>
<!-- CodeBoxComponent -->
<g id="node1" class="node">
<title>CodeBoxComponent</title>
<polygon fill="#ffffb3" stroke="black" points="247.22,-122 112.78,-122 112.78,-86 247.22,-86 247.22,-122"/>
<text text-anchor="middle" x="180" y="-99.8" font-family="Times,serif" font-size="14.00">CodeBoxComponent</text>
</g>
<!-- CodeBoxModule -->
<g id="node2" class="node">
<title>CodeBoxModule</title>
<polygon fill="#8dd3c7" stroke="black" points="304.44,-187 301.44,-191 280.44,-191 277.44,-187 191.56,-187 191.56,-151 304.44,-151 304.44,-187"/>
<text text-anchor="middle" x="248" y="-164.8" font-family="Times,serif" font-size="14.00">CodeBoxModule</text>
</g>
<!-- CodeBoxComponent&#45;&gt;CodeBoxModule -->
<g id="edge1" class="edge">
<title>CodeBoxComponent&#45;&gt;CodeBoxModule</title>
<path fill="none" stroke="black" d="M219.45,-122.11C219.45,-122.11 219.45,-140.99 219.45,-140.99"/>
<polygon fill="black" stroke="black" points="215.95,-140.99 219.45,-150.99 222.95,-140.99 215.95,-140.99"/>
</g>
<!-- CodeBoxComponent  -->
<g id="node4" class="node">
<title>CodeBoxComponent </title>
<polygon fill="#fb8072" stroke="black" points="316.72,-252 179.28,-252 179.28,-216 316.72,-216 316.72,-252"/>
<text text-anchor="middle" x="248" y="-229.8" font-family="Times,serif" font-size="14.00">CodeBoxComponent </text>
</g>
<!-- CodeBoxModule&#45;&gt;CodeBoxComponent  -->
<g id="edge3" class="edge">
<title>CodeBoxModule&#45;&gt;CodeBoxComponent </title>
<path fill="none" stroke="black" stroke-dasharray="5,2" d="M248,-187.11C248,-187.11 248,-205.99 248,-205.99"/>
<polygon fill="black" stroke="black" points="244.5,-205.99 248,-215.99 251.5,-205.99 244.5,-205.99"/>
</g>
<!-- CommonModule -->
<g id="node3" class="node">
<title>CommonModule</title>
<polygon fill="#8dd3c7" stroke="black" points="382.67,-122 379.67,-126 358.67,-126 355.67,-122 271.33,-122 271.33,-86 382.67,-86 382.67,-122"/>
<text text-anchor="middle" x="327" y="-99.8" font-family="Times,serif" font-size="14.00">CommonModule</text>
</g>
<!-- CommonModule&#45;&gt;CodeBoxModule -->
<g id="edge2" class="edge">
<title>CommonModule&#45;&gt;CodeBoxModule</title>
<path fill="none" stroke="black" d="M287.69,-122.11C287.69,-122.11 287.69,-140.99 287.69,-140.99"/>
<polygon fill="black" stroke="black" points="284.19,-140.99 287.69,-150.99 291.19,-140.99 284.19,-140.99"/>
</g>
</g>
</svg>
