<?xml version="1.0" encoding="UTF-8" standalone="no"?>
<!DOCTYPE svg PUBLIC "-//W3C//DTD SVG 1.1//EN"
 "http://www.w3.org/Graphics/SVG/1.1/DTD/svg11.dtd">
<!-- Generated by graphviz version 2.47.0 (20210316.0004)
 -->
<!-- Title: dependencies Pages: 1 -->
<svg width="957pt" height="284pt"
 viewBox="0.00 0.00 957.00 284.00" xmlns="http://www.w3.org/2000/svg" xmlns:xlink="http://www.w3.org/1999/xlink">
<g id="graph0" class="graph" transform="scale(1 1) rotate(0) translate(4 280)">
<title>dependencies</title>
<polygon fill="white" stroke="transparent" points="-4,4 -4,-280 953,-280 953,4 -4,4"/>
<text text-anchor="start" x="453.51" y="-42.4" font-family="sans-serif" font-weight="bold" font-size="14.00">Legend</text>
<polygon fill="#ffffb3" stroke="transparent" points="240.5,-10 240.5,-30 260.5,-30 260.5,-10 240.5,-10"/>
<text text-anchor="start" x="264.13" y="-15.4" font-family="sans-serif" font-size="14.00"> &#160;Declarations</text>
<polygon fill="#8dd3c7" stroke="transparent" points="353.5,-10 353.5,-30 373.5,-30 373.5,-10 353.5,-10"/>
<text text-anchor="start" x="377.23" y="-15.4" font-family="sans-serif" font-size="14.00"> &#160;Module</text>
<polygon fill="#80b1d3" stroke="transparent" points="439.5,-10 439.5,-30 459.5,-30 459.5,-10 439.5,-10"/>
<text text-anchor="start" x="463.28" y="-15.4" font-family="sans-serif" font-size="14.00"> &#160;Bootstrap</text>
<polygon fill="#fdb462" stroke="transparent" points="536.5,-10 536.5,-30 556.5,-30 556.5,-10 536.5,-10"/>
<text text-anchor="start" x="560.17" y="-15.4" font-family="sans-serif" font-size="14.00"> &#160;Providers</text>
<polygon fill="#fb8072" stroke="transparent" points="632.5,-10 632.5,-30 652.5,-30 652.5,-10 632.5,-10"/>
<text text-anchor="start" x="656.23" y="-15.4" font-family="sans-serif" font-size="14.00"> &#160;Exports</text>
<g id="clust1" class="cluster">
<title>cluster_GeneratorModule</title>
<polygon fill="none" stroke="black" stroke-dasharray="1,5" points="8,-70 8,-268 941,-268 941,-70 8,-70"/>
</g>
<g id="clust4" class="cluster">
<title>cluster_GeneratorModule_imports</title>
<polygon fill="none" stroke="black" points="178,-78 178,-130 933,-130 933,-78 178,-78"/>
</g>
<g id="clust2" class="cluster">
<title>cluster_GeneratorModule_declarations</title>
<polygon fill="none" stroke="black" points="16,-78 16,-130 170,-130 170,-78 16,-78"/>
</g>
<g id="clust5" class="cluster">
<title>cluster_GeneratorModule_exports</title>
<polygon fill="none" stroke="black" points="414,-208 414,-260 532,-260 532,-208 414,-208"/>
</g>
<!-- GeneratorComponent -->
<g id="node1" class="node">
<title>GeneratorComponent</title>
<polygon fill="#ffffb3" stroke="black" points="161.79,-122 24.21,-122 24.21,-86 161.79,-86 161.79,-122"/>
<text text-anchor="middle" x="93" y="-99.8" font-family="Times,serif" font-size="14.00">GeneratorComponent</text>
</g>
<!-- GeneratorModule -->
<g id="node2" class="node">
<title>GeneratorModule</title>
<polygon fill="#8dd3c7" stroke="black" points="530.51,-187 527.51,-191 506.51,-191 503.51,-187 415.49,-187 415.49,-151 530.51,-151 530.51,-187"/>
<text text-anchor="middle" x="473" y="-164.8" font-family="Times,serif" font-size="14.00">GeneratorModule</text>
</g>
<!-- GeneratorComponent&#45;&gt;GeneratorModule -->
<g id="edge1" class="edge">
<title>GeneratorComponent&#45;&gt;GeneratorModule</title>
<path fill="none" stroke="black" d="M93,-122.28C93,-143.32 93,-175 93,-175 93,-175 405.29,-175 405.29,-175"/>
<polygon fill="black" stroke="black" points="405.29,-178.5 415.29,-175 405.29,-171.5 405.29,-178.5"/>
</g>
<!-- RouterModule  -->
<g id="node8" class="node">
<title>RouterModule </title>
<polygon fill="#fb8072" stroke="black" points="523.65,-252 422.35,-252 422.35,-216 523.65,-216 523.65,-252"/>
<text text-anchor="middle" x="473" y="-229.8" font-family="Times,serif" font-size="14.00">RouterModule </text>
</g>
<!-- GeneratorModule&#45;&gt;RouterModule  -->
<g id="edge7" class="edge">
<title>GeneratorModule&#45;&gt;RouterModule </title>
<path fill="none" stroke="black" stroke-dasharray="5,2" d="M473,-187.11C473,-187.11 473,-205.99 473,-205.99"/>
<polygon fill="black" stroke="black" points="469.5,-205.99 473,-215.99 476.5,-205.99 469.5,-205.99"/>
</g>
<!-- CommonModule -->
<g id="node3" class="node">
<title>CommonModule</title>
<polygon fill="#8dd3c7" stroke="black" points="924.67,-122 921.67,-126 900.67,-126 897.67,-122 813.33,-122 813.33,-86 924.67,-86 924.67,-122"/>
<text text-anchor="middle" x="869" y="-99.8" font-family="Times,serif" font-size="14.00">CommonModule</text>
</g>
<!-- CommonModule&#45;&gt;GeneratorModule -->
<g id="edge2" class="edge">
<title>CommonModule&#45;&gt;GeneratorModule</title>
<path fill="none" stroke="black" d="M869,-122.28C869,-143.32 869,-175 869,-175 869,-175 540.58,-175 540.58,-175"/>
<polygon fill="black" stroke="black" points="540.58,-171.5 530.58,-175 540.58,-178.5 540.58,-171.5"/>
</g>
<!-- RouterModule.forChild(args) -->
<g id="node4" class="node">
<title>RouterModule.forChild(args)</title>
<polygon fill="#8dd3c7" stroke="black" points="795.73,-122 792.73,-126 771.73,-126 768.73,-122 614.27,-122 614.27,-86 795.73,-86 795.73,-122"/>
<text text-anchor="middle" x="705" y="-99.8" font-family="Times,serif" font-size="14.00">RouterModule.forChild(args)</text>
</g>
<!-- RouterModule.forChild(args)&#45;&gt;GeneratorModule -->
<g id="edge3" class="edge">
<title>RouterModule.forChild(args)&#45;&gt;GeneratorModule</title>
<path fill="none" stroke="black" d="M705,-122.02C705,-139.37 705,-163 705,-163 705,-163 540.65,-163 540.65,-163"/>
<polygon fill="black" stroke="black" points="540.65,-159.5 530.65,-163 540.65,-166.5 540.65,-159.5"/>
</g>
<!-- CodeBoxModule -->
<g id="node5" class="node">
<title>CodeBoxModule</title>
<polygon fill="#8dd3c7" stroke="black" points="596.44,-122 593.44,-126 572.44,-126 569.44,-122 483.56,-122 483.56,-86 596.44,-86 596.44,-122"/>
<text text-anchor="middle" x="540" y="-99.8" font-family="Times,serif" font-size="14.00">CodeBoxModule</text>
</g>
<!-- CodeBoxModule&#45;&gt;GeneratorModule -->
<g id="edge4" class="edge">
<title>CodeBoxModule&#45;&gt;GeneratorModule</title>
<path fill="none" stroke="black" d="M507.27,-122.11C507.27,-122.11 507.27,-140.99 507.27,-140.99"/>
<polygon fill="black" stroke="black" points="503.77,-140.99 507.27,-150.99 510.77,-140.99 503.77,-140.99"/>
</g>
<!-- AltarInputModule -->
<g id="node6" class="node">
<title>AltarInputModule</title>
<polygon fill="#8dd3c7" stroke="black" points="465.86,-122 462.86,-126 441.86,-126 438.86,-122 348.14,-122 348.14,-86 465.86,-86 465.86,-122"/>
<text text-anchor="middle" x="407" y="-99.8" font-family="Times,serif" font-size="14.00">AltarInputModule</text>
</g>
<!-- AltarInputModule&#45;&gt;GeneratorModule -->
<g id="edge5" class="edge">
<title>AltarInputModule&#45;&gt;GeneratorModule</title>
<path fill="none" stroke="black" d="M440.59,-122.11C440.59,-122.11 440.59,-140.99 440.59,-140.99"/>
<polygon fill="black" stroke="black" points="437.09,-140.99 440.59,-150.99 444.09,-140.99 437.09,-140.99"/>
</g>
<!-- ReactiveFormsModule -->
<g id="node7" class="node">
<title>ReactiveFormsModule</title>
<polygon fill="#8dd3c7" stroke="black" points="330.3,-122 327.3,-126 306.3,-126 303.3,-122 185.7,-122 185.7,-86 330.3,-86 330.3,-122"/>
<text text-anchor="middle" x="258" y="-99.8" font-family="Times,serif" font-size="14.00">ReactiveFormsModule</text>
</g>
<!-- ReactiveFormsModule&#45;&gt;GeneratorModule -->
<g id="edge6" class="edge">
<title>ReactiveFormsModule&#45;&gt;GeneratorModule</title>
<path fill="none" stroke="black" d="M258,-122.02C258,-139.37 258,-163 258,-163 258,-163 405.38,-163 405.38,-163"/>
<polygon fill="black" stroke="black" points="405.38,-166.5 415.38,-163 405.38,-159.5 405.38,-166.5"/>
</g>
</g>
</svg>
