<?xml version="1.0" encoding="UTF-8" standalone="no"?>
<!DOCTYPE svg PUBLIC "-//W3C//DTD SVG 1.1//EN"
 "http://www.w3.org/Graphics/SVG/1.1/DTD/svg11.dtd">
<!-- Generated by graphviz version 2.47.0 (20210316.0004)
 -->
<!-- Title: dependencies Pages: 1 -->
<svg width="957pt" height="284pt"
 viewBox="0.00 0.00 957.00 284.00" xmlns="http://www.w3.org/2000/svg" xmlns:xlink="http://www.w3.org/1999/xlink">
<g id="graph0" class="graph" transform="scale(1 1) rotate(0) translate(4 280)">
<title>dependencies</title>
<polygon fill="white" stroke="transparent" points="-4,4 -4,-280 953,-280 953,4 -4,4"/>
<text text-anchor="start" x="453.51" y="-42.4" font-family="sans-serif" font-weight="bold" font-size="14.00">Legend</text>
<polygon fill="#ffffb3" stroke="transparent" points="240.5,-10 240.5,-30 260.5,-30 260.5,-10 240.5,-10"/>
<text text-anchor="start" x="264.13" y="-15.4" font-family="sans-serif" font-size="14.00"> &#160;Declarations</text>
<polygon fill="#8dd3c7" stroke="transparent" points="353.5,-10 353.5,-30 373.5,-30 373.5,-10 353.5,-10"/>
<text text-anchor="start" x="377.23" y="-15.4" font-family="sans-serif" font-size="14.00"> &#160;Module</text>
<polygon fill="#80b1d3" stroke="transparent" points="439.5,-10 439.5,-30 459.5,-30 459.5,-10 439.5,-10"/>
<text text-anchor="start" x="463.28" y="-15.4" font-family="sans-serif" font-size="14.00"> &#160;Bootstrap</text>
<polygon fill="#fdb462" stroke="transparent" points="536.5,-10 536.5,-30 556.5,-30 556.5,-10 536.5,-10"/>
<text text-anchor="start" x="560.17" y="-15.4" font-family="sans-serif" font-size="14.00"> &#160;Providers</text>
<polygon fill="#fb8072" stroke="transparent" points="632.5,-10 632.5,-30 652.5,-30 652.5,-10 632.5,-10"/>
<text text-anchor="start" x="656.23" y="-15.4" font-family="sans-serif" font-size="14.00"> &#160;Exports</text>
<g id="clust1" class="cluster">
<title>cluster_GeneratorModule</title>
<polygon fill="none" stroke="black" stroke-dasharray="1,5" points="8,-70 8,-268 941,-268 941,-70 8,-70"/>
</g>
<g id="clust5" class="cluster">
<title>cluster_GeneratorModule_exports</title>
<polygon fill="none" stroke="black" points="401,-208 401,-260 519,-260 519,-208 401,-208"/>
</g>
<g id="clust2" class="cluster">
<title>cluster_GeneratorModule_declarations</title>
<polygon fill="none" stroke="black" points="779,-78 779,-130 933,-130 933,-78 779,-78"/>
</g>
<g id="clust4" class="cluster">
<title>cluster_GeneratorModule_imports</title>
<polygon fill="none" stroke="black" points="16,-78 16,-130 771,-130 771,-78 16,-78"/>
</g>
<!-- GeneratorComponent -->
<g id="node1" class="node">
<title>GeneratorComponent</title>
<polygon fill="#ffffb3" stroke="black" points="924.79,-122 787.21,-122 787.21,-86 924.79,-86 924.79,-122"/>
<text text-anchor="middle" x="856" y="-99.8" font-family="Times,serif" font-size="14.00">GeneratorComponent</text>
</g>
<!-- GeneratorModule -->
<g id="node2" class="node">
<title>GeneratorModule</title>
<polygon fill="#8dd3c7" stroke="black" points="517.51,-187 514.51,-191 493.51,-191 490.51,-187 402.49,-187 402.49,-151 517.51,-151 517.51,-187"/>
<text text-anchor="middle" x="460" y="-164.8" font-family="Times,serif" font-size="14.00">GeneratorModule</text>
</g>
<!-- GeneratorComponent&#45;&gt;GeneratorModule -->
<g id="edge1" class="edge">
<title>GeneratorComponent&#45;&gt;GeneratorModule</title>
<path fill="none" stroke="black" d="M856,-122.28C856,-143.32 856,-175 856,-175 856,-175 527.58,-175 527.58,-175"/>
<polygon fill="black" stroke="black" points="527.58,-171.5 517.58,-175 527.58,-178.5 527.58,-171.5"/>
</g>
<!-- RouterModule  -->
<g id="node8" class="node">
<title>RouterModule </title>
<polygon fill="#fb8072" stroke="black" points="510.65,-252 409.35,-252 409.35,-216 510.65,-216 510.65,-252"/>
<text text-anchor="middle" x="460" y="-229.8" font-family="Times,serif" font-size="14.00">RouterModule </text>
</g>
<!-- GeneratorModule&#45;&gt;RouterModule  -->
<g id="edge7" class="edge">
<title>GeneratorModule&#45;&gt;RouterModule </title>
<path fill="none" stroke="black" stroke-dasharray="5,2" d="M460,-187.11C460,-187.11 460,-205.99 460,-205.99"/>
<polygon fill="black" stroke="black" points="456.5,-205.99 460,-215.99 463.5,-205.99 456.5,-205.99"/>
</g>
<!-- CommonModule -->
<g id="node3" class="node">
<title>CommonModule</title>
<polygon fill="#8dd3c7" stroke="black" points="762.67,-122 759.67,-126 738.67,-126 735.67,-122 651.33,-122 651.33,-86 762.67,-86 762.67,-122"/>
<text text-anchor="middle" x="707" y="-99.8" font-family="Times,serif" font-size="14.00">CommonModule</text>
</g>
<!-- CommonModule&#45;&gt;GeneratorModule -->
<g id="edge2" class="edge">
<title>CommonModule&#45;&gt;GeneratorModule</title>
<path fill="none" stroke="black" d="M707,-122.02C707,-139.37 707,-163 707,-163 707,-163 527.6,-163 527.6,-163"/>
<polygon fill="black" stroke="black" points="527.6,-159.5 517.6,-163 527.6,-166.5 527.6,-159.5"/>
</g>
<!-- RouterModule.forChild(args) -->
<g id="node4" class="node">
<title>RouterModule.forChild(args)</title>
<polygon fill="#8dd3c7" stroke="black" points="633.73,-122 630.73,-126 609.73,-126 606.73,-122 452.27,-122 452.27,-86 633.73,-86 633.73,-122"/>
<text text-anchor="middle" x="543" y="-99.8" font-family="Times,serif" font-size="14.00">RouterModule.forChild(args)</text>
</g>
<!-- RouterModule.forChild(args)&#45;&gt;GeneratorModule -->
<g id="edge3" class="edge">
<title>RouterModule.forChild(args)&#45;&gt;GeneratorModule</title>
<path fill="none" stroke="black" d="M485.07,-122.11C485.07,-122.11 485.07,-140.99 485.07,-140.99"/>
<polygon fill="black" stroke="black" points="481.57,-140.99 485.07,-150.99 488.57,-140.99 481.57,-140.99"/>
</g>
<!-- CodeBoxModule -->
<g id="node5" class="node">
<title>CodeBoxModule</title>
<polygon fill="#8dd3c7" stroke="black" points="434.44,-122 431.44,-126 410.44,-126 407.44,-122 321.56,-122 321.56,-86 434.44,-86 434.44,-122"/>
<text text-anchor="middle" x="378" y="-99.8" font-family="Times,serif" font-size="14.00">CodeBoxModule</text>
</g>
<!-- CodeBoxModule&#45;&gt;GeneratorModule -->
<g id="edge4" class="edge">
<title>CodeBoxModule&#45;&gt;GeneratorModule</title>
<path fill="none" stroke="black" d="M418.23,-122.11C418.23,-122.11 418.23,-140.99 418.23,-140.99"/>
<polygon fill="black" stroke="black" points="414.73,-140.99 418.23,-150.99 421.73,-140.99 414.73,-140.99"/>
</g>
<!-- AltarInputModule -->
<g id="node6" class="node">
<title>AltarInputModule</title>
<polygon fill="#8dd3c7" stroke="black" points="303.86,-122 300.86,-126 279.86,-126 276.86,-122 186.14,-122 186.14,-86 303.86,-86 303.86,-122"/>
<text text-anchor="middle" x="245" y="-99.8" font-family="Times,serif" font-size="14.00">AltarInputModule</text>
</g>
<!-- AltarInputModule&#45;&gt;GeneratorModule -->
<g id="edge5" class="edge">
<title>AltarInputModule&#45;&gt;GeneratorModule</title>
<path fill="none" stroke="black" d="M245,-122.02C245,-139.37 245,-163 245,-163 245,-163 392.38,-163 392.38,-163"/>
<polygon fill="black" stroke="black" points="392.38,-166.5 402.38,-163 392.38,-159.5 392.38,-166.5"/>
</g>
<!-- ReactiveFormsModule -->
<g id="node7" class="node">
<title>ReactiveFormsModule</title>
<polygon fill="#8dd3c7" stroke="black" points="168.3,-122 165.3,-126 144.3,-126 141.3,-122 23.7,-122 23.7,-86 168.3,-86 168.3,-122"/>
<text text-anchor="middle" x="96" y="-99.8" font-family="Times,serif" font-size="14.00">ReactiveFormsModule</text>
</g>
<!-- ReactiveFormsModule&#45;&gt;GeneratorModule -->
<g id="edge6" class="edge">
<title>ReactiveFormsModule&#45;&gt;GeneratorModule</title>
<path fill="none" stroke="black" d="M96,-122.28C96,-143.32 96,-175 96,-175 96,-175 392.32,-175 392.32,-175"/>
<polygon fill="black" stroke="black" points="392.32,-178.5 402.32,-175 392.32,-171.5 392.32,-178.5"/>
</g>
</g>
</svg>
