<?xml version="1.0" encoding="UTF-8" standalone="no"?>
<!DOCTYPE svg PUBLIC "-//W3C//DTD SVG 1.1//EN"
 "http://www.w3.org/Graphics/SVG/1.1/DTD/svg11.dtd">
<!-- Generated by graphviz version 2.47.0 (20210316.0004)
 -->
<!-- Title: dependencies Pages: 1 -->
<svg width="1141pt" height="349pt"
 viewBox="0.00 0.00 1141.00 349.00" xmlns="http://www.w3.org/2000/svg" xmlns:xlink="http://www.w3.org/1999/xlink">
<g id="graph0" class="graph" transform="scale(1 1) rotate(0) translate(4 345)">
<title>dependencies</title>
<polygon fill="white" stroke="transparent" points="-4,4 -4,-345 1137,-345 1137,4 -4,4"/>
<text text-anchor="start" x="545.51" y="-42.4" font-family="sans-serif" font-weight="bold" font-size="14.00">Legend</text>
<polygon fill="#ffffb3" stroke="transparent" points="332.5,-10 332.5,-30 352.5,-30 352.5,-10 332.5,-10"/>
<text text-anchor="start" x="356.13" y="-15.4" font-family="sans-serif" font-size="14.00"> &#160;Declarations</text>
<polygon fill="#8dd3c7" stroke="transparent" points="445.5,-10 445.5,-30 465.5,-30 465.5,-10 445.5,-10"/>
<text text-anchor="start" x="469.23" y="-15.4" font-family="sans-serif" font-size="14.00"> &#160;Module</text>
<polygon fill="#80b1d3" stroke="transparent" points="531.5,-10 531.5,-30 551.5,-30 551.5,-10 531.5,-10"/>
<text text-anchor="start" x="555.28" y="-15.4" font-family="sans-serif" font-size="14.00"> &#160;Bootstrap</text>
<polygon fill="#fdb462" stroke="transparent" points="628.5,-10 628.5,-30 648.5,-30 648.5,-10 628.5,-10"/>
<text text-anchor="start" x="652.17" y="-15.4" font-family="sans-serif" font-size="14.00"> &#160;Providers</text>
<polygon fill="#fb8072" stroke="transparent" points="724.5,-10 724.5,-30 744.5,-30 744.5,-10 724.5,-10"/>
<text text-anchor="start" x="748.23" y="-15.4" font-family="sans-serif" font-size="14.00"> &#160;Exports</text>
<g id="clust1" class="cluster">
<title>cluster_AltarInputModule</title>
<polygon fill="none" stroke="black" stroke-dasharray="1,5" points="8,-70 8,-333 1125,-333 1125,-70 8,-70"/>
</g>
<g id="clust4" class="cluster">
<title>cluster_AltarInputModule_imports</title>
<polygon fill="none" stroke="black" points="714,-143 714,-195 1117,-195 1117,-143 714,-143"/>
</g>
<g id="clust3" class="cluster">
<title>cluster_AltarInputModule_AltarInputComponent_providers</title>
<polygon fill="none" stroke="black" points="16,-78 16,-195 706,-195 706,-78 16,-78"/>
</g>
<g id="clust5" class="cluster">
<title>cluster_AltarInputModule_exports</title>
<polygon fill="none" stroke="black" points="783,-273 783,-325 943,-325 943,-273 783,-273"/>
</g>
<!-- AltarInputComponent -->
<g id="node1" class="node">
<title>AltarInputComponent</title>
<polygon fill="#ffffb3" stroke="black" points="563.65,-187 424.35,-187 424.35,-151 563.65,-151 563.65,-187"/>
<text text-anchor="middle" x="494" y="-164.8" font-family="Times,serif" font-size="14.00">AltarInputComponent</text>
</g>
<!-- AltarInputModule -->
<g id="node2" class="node">
<title>AltarInputModule</title>
<polygon fill="#8dd3c7" stroke="black" points="921.86,-252 918.86,-256 897.86,-256 894.86,-252 804.14,-252 804.14,-216 921.86,-216 921.86,-252"/>
<text text-anchor="middle" x="863" y="-229.8" font-family="Times,serif" font-size="14.00">AltarInputModule</text>
</g>
<!-- AltarInputComponent&#45;&gt;AltarInputModule -->
<g id="edge1" class="edge">
<title>AltarInputComponent&#45;&gt;AltarInputModule</title>
<path fill="none" stroke="black" d="M494,-187.11C494,-206.34 494,-234 494,-234 494,-234 794.12,-234 794.12,-234"/>
<polygon fill="black" stroke="black" points="794.12,-237.5 804.12,-234 794.12,-230.5 794.12,-237.5"/>
</g>
<!-- AltarInputComponent  -->
<g id="node7" class="node">
<title>AltarInputComponent </title>
<polygon fill="#fb8072" stroke="black" points="934.65,-317 791.35,-317 791.35,-281 934.65,-281 934.65,-317"/>
<text text-anchor="middle" x="863" y="-294.8" font-family="Times,serif" font-size="14.00">AltarInputComponent </text>
</g>
<!-- AltarInputModule&#45;&gt;AltarInputComponent  -->
<g id="edge6" class="edge">
<title>AltarInputModule&#45;&gt;AltarInputComponent </title>
<path fill="none" stroke="black" stroke-dasharray="5,2" d="M863,-252.11C863,-252.11 863,-270.99 863,-270.99"/>
<polygon fill="black" stroke="black" points="859.5,-270.99 863,-280.99 866.5,-270.99 859.5,-270.99"/>
</g>
<!-- { provide: NG_VALUE_ACCESSOR, useExisting: AltarInputComponent, multi: &#160;} -->
<g id="node3" class="node">
<title>{ provide: NG_VALUE_ACCESSOR, useExisting: AltarInputComponent, multi: &#160;}</title>
<ellipse fill="#fdb462" stroke="black" cx="361" cy="-104" rx="336.58" ry="18"/>
<text text-anchor="middle" x="361" y="-99.8" font-family="Times,serif" font-size="14.00">{ provide: NG_VALUE_ACCESSOR, useExisting: AltarInputComponent, multi: &#160;}</text>
</g>
<!-- { provide: NG_VALUE_ACCESSOR, useExisting: AltarInputComponent, multi: &#160;}&#45;&gt;AltarInputComponent -->
<g id="edge2" class="edge">
<title>{ provide: NG_VALUE_ACCESSOR, useExisting: AltarInputComponent, multi: &#160;}&#45;&gt;AltarInputComponent</title>
<path fill="none" stroke="black" d="M494,-120.74C494,-120.74 494,-140.72 494,-140.72"/>
<polygon fill="black" stroke="black" points="490.5,-140.72 494,-150.72 497.5,-140.72 490.5,-140.72"/>
</g>
<!-- CommonModule -->
<g id="node4" class="node">
<title>CommonModule</title>
<polygon fill="#8dd3c7" stroke="black" points="1108.67,-187 1105.67,-191 1084.67,-191 1081.67,-187 997.33,-187 997.33,-151 1108.67,-151 1108.67,-187"/>
<text text-anchor="middle" x="1053" y="-164.8" font-family="Times,serif" font-size="14.00">CommonModule</text>
</g>
<!-- CommonModule&#45;&gt;AltarInputModule -->
<g id="edge3" class="edge">
<title>CommonModule&#45;&gt;AltarInputModule</title>
<path fill="none" stroke="black" d="M1053,-187.11C1053,-206.34 1053,-234 1053,-234 1053,-234 932.08,-234 932.08,-234"/>
<polygon fill="black" stroke="black" points="932.08,-230.5 922.08,-234 932.08,-237.5 932.08,-230.5"/>
</g>
<!-- FormsModule -->
<g id="node5" class="node">
<title>FormsModule</title>
<polygon fill="#8dd3c7" stroke="black" points="979.83,-187 976.83,-191 955.83,-191 952.83,-187 884.17,-187 884.17,-151 979.83,-151 979.83,-187"/>
<text text-anchor="middle" x="932" y="-164.8" font-family="Times,serif" font-size="14.00">FormsModule</text>
</g>
<!-- FormsModule&#45;&gt;AltarInputModule -->
<g id="edge4" class="edge">
<title>FormsModule&#45;&gt;AltarInputModule</title>
<path fill="none" stroke="black" d="M903.13,-187.11C903.13,-187.11 903.13,-205.99 903.13,-205.99"/>
<polygon fill="black" stroke="black" points="899.63,-205.99 903.13,-215.99 906.63,-205.99 899.63,-205.99"/>
</g>
<!-- ReactiveFormsModule -->
<g id="node6" class="node">
<title>ReactiveFormsModule</title>
<polygon fill="#8dd3c7" stroke="black" points="866.3,-187 863.3,-191 842.3,-191 839.3,-187 721.7,-187 721.7,-151 866.3,-151 866.3,-187"/>
<text text-anchor="middle" x="794" y="-164.8" font-family="Times,serif" font-size="14.00">ReactiveFormsModule</text>
</g>
<!-- ReactiveFormsModule&#45;&gt;AltarInputModule -->
<g id="edge5" class="edge">
<title>ReactiveFormsModule&#45;&gt;AltarInputModule</title>
<path fill="none" stroke="black" d="M835.11,-187.11C835.11,-187.11 835.11,-205.99 835.11,-205.99"/>
<polygon fill="black" stroke="black" points="831.61,-205.99 835.11,-215.99 838.61,-205.99 831.61,-205.99"/>
</g>
</g>
</svg>
