<?xml version="1.0" encoding="UTF-8" standalone="no"?>
<!DOCTYPE svg PUBLIC "-//W3C//DTD SVG 1.1//EN"
 "http://www.w3.org/Graphics/SVG/1.1/DTD/svg11.dtd">
<!-- Generated by graphviz version 2.47.0 (20210316.0004)
 -->
<!-- Title: dependencies Pages: 1 -->
<svg width="2325pt" height="431pt"
 viewBox="0.00 0.00 2325.00 431.00" xmlns="http://www.w3.org/2000/svg" xmlns:xlink="http://www.w3.org/1999/xlink">
<g id="graph0" class="graph" transform="scale(1 1) rotate(0) translate(4 427)">
<title>dependencies</title>
<polygon fill="white" stroke="transparent" points="-4,4 -4,-427 2321,-427 2321,4 -4,4"/>
<text text-anchor="start" x="1137.51" y="-42.4" font-family="sans-serif" font-weight="bold" font-size="14.00">Legend</text>
<polygon fill="#ffffb3" stroke="transparent" points="924.5,-10 924.5,-30 944.5,-30 944.5,-10 924.5,-10"/>
<text text-anchor="start" x="948.13" y="-15.4" font-family="sans-serif" font-size="14.00"> &#160;Declarations</text>
<polygon fill="#8dd3c7" stroke="transparent" points="1037.5,-10 1037.5,-30 1057.5,-30 1057.5,-10 1037.5,-10"/>
<text text-anchor="start" x="1061.23" y="-15.4" font-family="sans-serif" font-size="14.00"> &#160;Module</text>
<polygon fill="#80b1d3" stroke="transparent" points="1123.5,-10 1123.5,-30 1143.5,-30 1143.5,-10 1123.5,-10"/>
<text text-anchor="start" x="1147.28" y="-15.4" font-family="sans-serif" font-size="14.00"> &#160;Bootstrap</text>
<polygon fill="#fdb462" stroke="transparent" points="1220.5,-10 1220.5,-30 1240.5,-30 1240.5,-10 1220.5,-10"/>
<text text-anchor="start" x="1244.17" y="-15.4" font-family="sans-serif" font-size="14.00"> &#160;Providers</text>
<polygon fill="#fb8072" stroke="transparent" points="1316.5,-10 1316.5,-30 1336.5,-30 1336.5,-10 1316.5,-10"/>
<text text-anchor="start" x="1340.23" y="-15.4" font-family="sans-serif" font-size="14.00"> &#160;Exports</text>
<g id="clust1" class="cluster">
<title>cluster_AltarInputModule</title>
<polygon fill="none" stroke="black" stroke-dasharray="1,5" points="568,-70 568,-347 1274,-347 1274,-70 568,-70"/>
</g>
<g id="clust2" class="cluster">
<title>cluster_AltarInputModule_declarations</title>
<polygon fill="none" stroke="black" points="988,-154 988,-206 1144,-206 1144,-154 988,-154"/>
</g>
<g id="clust3" class="cluster">
<title>cluster_AltarInputModule_AltarInputComponent_providers</title>
<polygon fill="none" stroke="black" points="576,-78 576,-130 1266,-130 1266,-78 576,-78"/>
</g>
<g id="clust4" class="cluster">
<title>cluster_AltarInputModule_imports</title>
<polygon fill="none" stroke="black" points="576,-154 576,-206 980,-206 980,-154 576,-154"/>
</g>
<g id="clust5" class="cluster">
<title>cluster_AltarInputModule_exports</title>
<polygon fill="none" stroke="black" points="680,-287 680,-339 840,-339 840,-287 680,-287"/>
</g>
<g id="clust8" class="cluster">
<title>cluster_AppModule</title>
<polygon fill="none" stroke="black" stroke-dasharray="1,5" points="1460,-70 1460,-347 1875,-347 1875,-70 1460,-70"/>
</g>
<g id="clust9" class="cluster">
<title>cluster_AppModule_declarations</title>
<polygon fill="none" stroke="black" points="1745,-154 1745,-206 1867,-206 1867,-154 1745,-154"/>
</g>
<g id="clust11" class="cluster">
<title>cluster_AppModule_imports</title>
<polygon fill="none" stroke="black" points="1468,-78 1468,-206 1737,-206 1737,-78 1468,-78"/>
</g>
<g id="clust13" class="cluster">
<title>cluster_AppModule_bootstrap</title>
<polygon fill="none" stroke="black" points="1582,-287 1582,-339 1706,-339 1706,-287 1582,-287"/>
</g>
<g id="clust15" class="cluster">
<title>cluster_CodeBoxModule</title>
<polygon fill="none" stroke="black" stroke-dasharray="1,5" points="1282,-146 1282,-347 1452,-347 1452,-146 1282,-146"/>
</g>
<g id="clust16" class="cluster">
<title>cluster_CodeBoxModule_declarations</title>
<polygon fill="none" stroke="black" points="1290,-154 1290,-206 1440,-206 1440,-154 1290,-154"/>
</g>
<g id="clust19" class="cluster">
<title>cluster_CodeBoxModule_exports</title>
<polygon fill="none" stroke="black" points="1290,-287 1290,-339 1444,-339 1444,-287 1290,-287"/>
</g>
<g id="clust22" class="cluster">
<title>cluster_GeneratorModule</title>
<polygon fill="none" stroke="black" stroke-dasharray="1,5" points="184,-214 184,-415 560,-415 560,-214 184,-214"/>
</g>
<g id="clust23" class="cluster">
<title>cluster_GeneratorModule_declarations</title>
<polygon fill="none" stroke="black" points="398,-222 398,-274 552,-274 552,-222 398,-222"/>
</g>
<g id="clust25" class="cluster">
<title>cluster_GeneratorModule_imports</title>
<polygon fill="none" stroke="black" points="192,-222 192,-274 390,-274 390,-222 192,-222"/>
</g>
<g id="clust26" class="cluster">
<title>cluster_GeneratorModule_exports</title>
<polygon fill="none" stroke="black" points="313,-355 313,-407 431,-407 431,-355 313,-355"/>
</g>
<g id="clust29" class="cluster">
<title>cluster_PaymentsModule</title>
<polygon fill="none" stroke="black" stroke-dasharray="1,5" points="8,-214 8,-339 176,-339 176,-214 8,-214"/>
</g>
<g id="clust30" class="cluster">
<title>cluster_PaymentsModule_declarations</title>
<polygon fill="none" stroke="black" points="16,-222 16,-274 168,-274 168,-222 16,-222"/>
</g>
<g id="clust36" class="cluster">
<title>cluster_TopbarModule</title>
<polygon fill="none" stroke="black" stroke-dasharray="1,5" points="1883,-70 1883,-138 2309,-138 2309,-70 1883,-70"/>
</g>
<g id="clust37" class="cluster">
<title>cluster_TopbarModule_declarations</title>
<polygon fill="none" stroke="black" points="2163,-78 2163,-130 2301,-130 2301,-78 2163,-78"/>
</g>
<g id="clust39" class="cluster">
<title>cluster_TopbarModule_imports</title>
<polygon fill="none" stroke="black" points="2041,-78 2041,-130 2155,-130 2155,-78 2041,-78"/>
</g>
<g id="clust40" class="cluster">
<title>cluster_TopbarModule_exports</title>
<polygon fill="none" stroke="black" points="1891,-78 1891,-130 2033,-130 2033,-78 1891,-78"/>
</g>
<!-- AltarInputComponent -->
<g id="node1" class="node">
<title>AltarInputComponent</title>
<polygon fill="#ffffb3" stroke="black" points="1135.65,-198 996.35,-198 996.35,-162 1135.65,-162 1135.65,-198"/>
<text text-anchor="middle" x="1066" y="-175.8" font-family="Times,serif" font-size="14.00">AltarInputComponent</text>
</g>
<!-- AltarInputModule -->
<g id="node2" class="node">
<title>AltarInputModule</title>
<polygon fill="#8dd3c7" stroke="black" points="818.86,-266 815.86,-270 794.86,-270 791.86,-266 701.14,-266 701.14,-230 818.86,-230 818.86,-266"/>
<text text-anchor="middle" x="760" y="-243.8" font-family="Times,serif" font-size="14.00">AltarInputModule</text>
</g>
<!-- AltarInputComponent&#45;&gt;AltarInputModule -->
<g id="edge1" class="edge">
<title>AltarInputComponent&#45;&gt;AltarInputModule</title>
<path fill="none" stroke="black" d="M1066,-198.25C1066,-221.02 1066,-257 1066,-257 1066,-257 829,-257 829,-257"/>
<polygon fill="black" stroke="black" points="829,-253.5 819,-257 829,-260.5 829,-253.5"/>
</g>
<!-- AltarInputComponent  -->
<g id="node7" class="node">
<title>AltarInputComponent </title>
<polygon fill="#fb8072" stroke="black" points="831.65,-331 688.35,-331 688.35,-295 831.65,-295 831.65,-331"/>
<text text-anchor="middle" x="760" y="-308.8" font-family="Times,serif" font-size="14.00">AltarInputComponent </text>
</g>
<!-- AltarInputModule&#45;&gt;AltarInputComponent  -->
<g id="edge6" class="edge">
<title>AltarInputModule&#45;&gt;AltarInputComponent </title>
<path fill="none" stroke="black" stroke-dasharray="5,2" d="M779.64,-266.11C779.64,-266.11 779.64,-284.99 779.64,-284.99"/>
<polygon fill="black" stroke="black" points="776.14,-284.99 779.64,-294.99 783.14,-284.99 776.14,-284.99"/>
</g>
<!-- GeneratorModule -->
<g id="node18" class="node">
<title>GeneratorModule</title>
<polygon fill="#8dd3c7" stroke="black" points="551.51,-331 548.51,-335 527.51,-335 524.51,-331 436.49,-331 436.49,-295 551.51,-295 551.51,-331"/>
<text text-anchor="middle" x="494" y="-308.8" font-family="Times,serif" font-size="14.00">GeneratorModule</text>
</g>
<!-- AltarInputModule&#45;&gt;GeneratorModule -->
<g id="edge19" class="edge">
<title>AltarInputModule&#45;&gt;GeneratorModule</title>
<path fill="none" stroke="black" d="M700.96,-254C638.55,-254 549.05,-254 549.05,-254 549.05,-254 549.05,-284.98 549.05,-284.98"/>
<polygon fill="black" stroke="black" points="545.55,-284.98 549.05,-294.98 552.55,-284.98 545.55,-284.98"/>
</g>
<!-- PaymentsModule -->
<g id="node22" class="node">
<title>PaymentsModule</title>
<polygon fill="#8dd3c7" stroke="black" points="157.99,-331 154.99,-335 133.99,-335 130.99,-331 44.01,-331 44.01,-295 157.99,-295 157.99,-331"/>
<text text-anchor="middle" x="101" y="-308.8" font-family="Times,serif" font-size="14.00">PaymentsModule</text>
</g>
<!-- AltarInputModule&#45;&gt;PaymentsModule -->
<g id="edge28" class="edge">
<title>AltarInputModule&#45;&gt;PaymentsModule</title>
<path fill="none" stroke="black" d="M740.36,-266.12C740.36,-268.97 740.36,-271 740.36,-271 740.36,-271 82,-271 82,-271 82,-271 82,-284.94 82,-284.94"/>
<polygon fill="black" stroke="black" points="78.5,-284.94 82,-294.94 85.5,-284.94 78.5,-284.94"/>
</g>
<!-- { provide: NG_VALUE_ACCESSOR, useExisting: AltarInputComponent, multi: &#160;} -->
<g id="node3" class="node">
<title>{ provide: NG_VALUE_ACCESSOR, useExisting: AltarInputComponent, multi: &#160;}</title>
<ellipse fill="#fdb462" stroke="black" cx="921" cy="-104" rx="336.58" ry="18"/>
<text text-anchor="middle" x="921" y="-99.8" font-family="Times,serif" font-size="14.00">{ provide: NG_VALUE_ACCESSOR, useExisting: AltarInputComponent, multi: &#160;}</text>
</g>
<!-- { provide: NG_VALUE_ACCESSOR, useExisting: AltarInputComponent, multi: &#160;}&#45;&gt;AltarInputComponent -->
<g id="edge2" class="edge">
<title>{ provide: NG_VALUE_ACCESSOR, useExisting: AltarInputComponent, multi: &#160;}&#45;&gt;AltarInputComponent</title>
<path fill="none" stroke="black" d="M1066,-120.49C1066,-120.49 1066,-151.95 1066,-151.95"/>
<polygon fill="black" stroke="black" points="1062.5,-151.95 1066,-161.95 1069.5,-151.95 1062.5,-151.95"/>
</g>
<!-- CommonModule -->
<g id="node4" class="node">
<title>CommonModule</title>
<polygon fill="#8dd3c7" stroke="black" points="971.67,-198 968.67,-202 947.67,-202 944.67,-198 860.33,-198 860.33,-162 971.67,-162 971.67,-198"/>
<text text-anchor="middle" x="916" y="-175.8" font-family="Times,serif" font-size="14.00">CommonModule</text>
</g>
<!-- CommonModule&#45;&gt;AltarInputModule -->
<g id="edge3" class="edge">
<title>CommonModule&#45;&gt;AltarInputModule</title>
<path fill="none" stroke="black" d="M904.83,-198.22C904.83,-218.37 904.83,-248 904.83,-248 904.83,-248 828.91,-248 828.91,-248"/>
<polygon fill="black" stroke="black" points="828.91,-244.5 818.91,-248 828.91,-251.5 828.91,-244.5"/>
</g>
<!-- CodeBoxModule -->
<g id="node15" class="node">
<title>CodeBoxModule</title>
<polygon fill="#8dd3c7" stroke="black" points="1402.44,-266 1399.44,-270 1378.44,-270 1375.44,-266 1289.56,-266 1289.56,-230 1402.44,-230 1402.44,-266"/>
<text text-anchor="middle" x="1346" y="-243.8" font-family="Times,serif" font-size="14.00">CodeBoxModule</text>
</g>
<!-- CommonModule&#45;&gt;CodeBoxModule -->
<g id="edge13" class="edge">
<title>CommonModule&#45;&gt;CodeBoxModule</title>
<path fill="none" stroke="black" d="M949.5,-198.02C949.5,-215.37 949.5,-239 949.5,-239 949.5,-239 1279.61,-239 1279.61,-239"/>
<polygon fill="black" stroke="black" points="1279.61,-242.5 1289.61,-239 1279.61,-235.5 1279.61,-242.5"/>
</g>
<!-- CommonModule&#45;&gt;GeneratorModule -->
<g id="edge16" class="edge">
<title>CommonModule&#45;&gt;GeneratorModule</title>
<path fill="none" stroke="black" d="M882.5,-198.19C882.5,-206.28 882.5,-214 882.5,-214 882.5,-214 546.35,-214 546.35,-214 546.35,-214 546.35,-284.84 546.35,-284.84"/>
<polygon fill="black" stroke="black" points="542.85,-284.84 546.35,-294.84 549.85,-284.84 542.85,-284.84"/>
</g>
<!-- CommonModule&#45;&gt;PaymentsModule -->
<g id="edge23" class="edge">
<title>CommonModule&#45;&gt;PaymentsModule</title>
<path fill="none" stroke="black" d="M927.17,-198.06C927.17,-227.11 927.17,-281 927.17,-281 927.17,-281 120,-281 120,-281 120,-281 120,-284.76 120,-284.76"/>
<polygon fill="black" stroke="black" points="116.5,-284.76 120,-294.76 123.5,-284.76 116.5,-284.76"/>
</g>
<!-- FormsModule -->
<g id="node5" class="node">
<title>FormsModule</title>
<polygon fill="#8dd3c7" stroke="black" points="679.83,-198 676.83,-202 655.83,-202 652.83,-198 584.17,-198 584.17,-162 679.83,-162 679.83,-198"/>
<text text-anchor="middle" x="632" y="-175.8" font-family="Times,serif" font-size="14.00">FormsModule</text>
</g>
<!-- FormsModule&#45;&gt;AltarInputModule -->
<g id="edge4" class="edge">
<title>FormsModule&#45;&gt;AltarInputModule</title>
<path fill="none" stroke="black" d="M632,-198.27C632,-216.56 632,-242 632,-242 632,-242 690.87,-242 690.87,-242"/>
<polygon fill="black" stroke="black" points="690.87,-245.5 700.87,-242 690.87,-238.5 690.87,-245.5"/>
</g>
<!-- FormsModule&#45;&gt;PaymentsModule -->
<g id="edge26" class="edge">
<title>FormsModule&#45;&gt;PaymentsModule</title>
<path fill="none" stroke="black" d="M584.12,-180C514.62,-180 393.98,-180 393.98,-180 393.98,-180 393.98,-313 393.98,-313 393.98,-313 168.19,-313 168.19,-313"/>
<polygon fill="black" stroke="black" points="168.19,-309.5 158.19,-313 168.19,-316.5 168.19,-309.5"/>
</g>
<!-- ReactiveFormsModule -->
<g id="node6" class="node">
<title>ReactiveFormsModule</title>
<polygon fill="#8dd3c7" stroke="black" points="842.3,-198 839.3,-202 818.3,-202 815.3,-198 697.7,-198 697.7,-162 842.3,-162 842.3,-198"/>
<text text-anchor="middle" x="770" y="-175.8" font-family="Times,serif" font-size="14.00">ReactiveFormsModule</text>
</g>
<!-- ReactiveFormsModule&#45;&gt;AltarInputModule -->
<g id="edge5" class="edge">
<title>ReactiveFormsModule&#45;&gt;AltarInputModule</title>
<path fill="none" stroke="black" d="M760,-198.22C760,-198.22 760,-219.73 760,-219.73"/>
<polygon fill="black" stroke="black" points="756.5,-219.73 760,-229.73 763.5,-219.73 756.5,-219.73"/>
</g>
<!-- ReactiveFormsModule&#45;&gt;GeneratorModule -->
<g id="edge20" class="edge">
<title>ReactiveFormsModule&#45;&gt;GeneratorModule</title>
<path fill="none" stroke="black" d="M697.48,-180C689.42,-180 684.05,-180 684.05,-180 684.05,-180 684.05,-313 684.05,-313 684.05,-313 561.54,-313 561.54,-313"/>
<polygon fill="black" stroke="black" points="561.54,-309.5 551.54,-313 561.54,-316.5 561.54,-309.5"/>
</g>
<!-- ReactiveFormsModule&#45;&gt;PaymentsModule -->
<g id="edge25" class="edge">
<title>ReactiveFormsModule&#45;&gt;PaymentsModule</title>
<path fill="none" stroke="black" d="M825.25,-198.06C825.25,-225.87 825.25,-276 825.25,-276 825.25,-276 101,-276 101,-276 101,-276 101,-284.93 101,-284.93"/>
<polygon fill="black" stroke="black" points="97.5,-284.93 101,-294.93 104.5,-284.93 97.5,-284.93"/>
</g>
<!-- AppComponent -->
<g id="node8" class="node">
<title>AppComponent</title>
<polygon fill="#ffffb3" stroke="black" points="1858.94,-198 1753.06,-198 1753.06,-162 1858.94,-162 1858.94,-198"/>
<text text-anchor="middle" x="1806" y="-175.8" font-family="Times,serif" font-size="14.00">AppComponent</text>
</g>
<!-- AppModule -->
<g id="node9" class="node">
<title>AppModule</title>
<polygon fill="#8dd3c7" stroke="black" points="1685.66,-266 1682.66,-270 1661.66,-270 1658.66,-266 1602.34,-266 1602.34,-230 1685.66,-230 1685.66,-266"/>
<text text-anchor="middle" x="1644" y="-243.8" font-family="Times,serif" font-size="14.00">AppModule</text>
</g>
<!-- AppComponent&#45;&gt;AppModule -->
<g id="edge7" class="edge">
<title>AppComponent&#45;&gt;AppModule</title>
<path fill="none" stroke="black" d="M1806,-198.22C1806,-218.37 1806,-248 1806,-248 1806,-248 1695.72,-248 1695.72,-248"/>
<polygon fill="black" stroke="black" points="1695.72,-244.5 1685.72,-248 1695.72,-251.5 1695.72,-244.5"/>
</g>
<!-- AppComponent  -->
<g id="node13" class="node">
<title>AppComponent </title>
<polygon fill="#80b1d3" stroke="black" points="1698.44,-331 1589.56,-331 1589.56,-295 1698.44,-295 1698.44,-331"/>
<text text-anchor="middle" x="1644" y="-308.8" font-family="Times,serif" font-size="14.00">AppComponent </text>
</g>
<!-- AppModule&#45;&gt;AppComponent  -->
<g id="edge11" class="edge">
<title>AppModule&#45;&gt;AppComponent </title>
<path fill="none" stroke="black" stroke-dasharray="1,5" d="M1644,-266.11C1644,-266.11 1644,-284.99 1644,-284.99"/>
<polygon fill="black" stroke="black" points="1640.5,-284.99 1644,-294.99 1647.5,-284.99 1640.5,-284.99"/>
</g>
<!-- BrowserModule -->
<g id="node10" class="node">
<title>BrowserModule</title>
<polygon fill="#8dd3c7" stroke="black" points="1729.47,-122 1726.47,-126 1705.47,-126 1702.47,-122 1622.53,-122 1622.53,-86 1729.47,-86 1729.47,-122"/>
<text text-anchor="middle" x="1676" y="-99.8" font-family="Times,serif" font-size="14.00">BrowserModule</text>
</g>
<!-- BrowserModule&#45;&gt;AppModule -->
<g id="edge8" class="edge">
<title>BrowserModule&#45;&gt;AppModule</title>
<path fill="none" stroke="black" d="M1622.41,-104C1617,-104 1613.45,-104 1613.45,-104 1613.45,-104 1613.45,-219.76 1613.45,-219.76"/>
<polygon fill="black" stroke="black" points="1609.95,-219.76 1613.45,-229.76 1616.95,-219.76 1609.95,-219.76"/>
</g>
<!-- TopbarModule -->
<g id="node12" class="node">
<title>TopbarModule</title>
<polygon fill="#8dd3c7" stroke="black" points="1728.98,-198 1725.98,-202 1704.98,-202 1701.98,-198 1629.02,-198 1629.02,-162 1728.98,-162 1728.98,-198"/>
<text text-anchor="middle" x="1679" y="-175.8" font-family="Times,serif" font-size="14.00">TopbarModule</text>
</g>
<!-- BrowserModule&#45;&gt;TopbarModule -->
<g id="edge31" class="edge">
<title>BrowserModule&#45;&gt;TopbarModule</title>
<path fill="none" stroke="black" d="M1654.01,-122.01C1654.01,-122.01 1654.01,-151.85 1654.01,-151.85"/>
<polygon fill="black" stroke="black" points="1650.51,-151.85 1654.01,-161.85 1657.51,-151.85 1650.51,-151.85"/>
</g>
<!-- AppRoutingModule -->
<g id="node11" class="node">
<title>AppRoutingModule</title>
<polygon fill="#8dd3c7" stroke="black" points="1604.27,-122 1601.27,-126 1580.27,-126 1577.27,-122 1475.73,-122 1475.73,-86 1604.27,-86 1604.27,-122"/>
<text text-anchor="middle" x="1540" y="-99.8" font-family="Times,serif" font-size="14.00">AppRoutingModule</text>
</g>
<!-- AppRoutingModule&#45;&gt;AppModule -->
<g id="edge9" class="edge">
<title>AppRoutingModule&#45;&gt;AppModule</title>
<path fill="none" stroke="black" d="M1595.85,-122.24C1595.85,-160.99 1595.85,-248 1595.85,-248 1595.85,-248 1596.48,-248 1596.48,-248"/>
<polygon fill="black" stroke="black" points="1592.15,-251.5 1602.15,-248 1592.15,-244.5 1592.15,-251.5"/>
</g>
<!-- TopbarModule&#45;&gt;AppModule -->
<g id="edge10" class="edge">
<title>TopbarModule&#45;&gt;AppModule</title>
<path fill="none" stroke="black" d="M1657.42,-198.22C1657.42,-198.22 1657.42,-219.73 1657.42,-219.73"/>
<polygon fill="black" stroke="black" points="1653.92,-219.73 1657.42,-229.73 1660.92,-219.73 1653.92,-219.73"/>
</g>
<!-- TopbarComponent  -->
<g id="node25" class="node">
<title>TopbarComponent </title>
<polygon fill="#fb8072" stroke="black" points="2024.76,-122 1899.24,-122 1899.24,-86 2024.76,-86 2024.76,-122"/>
<text text-anchor="middle" x="1962" y="-99.8" font-family="Times,serif" font-size="14.00">TopbarComponent </text>
</g>
<!-- TopbarModule&#45;&gt;TopbarComponent  -->
<g id="edge33" class="edge">
<title>TopbarModule&#45;&gt;TopbarComponent </title>
<path fill="none" stroke="black" stroke-dasharray="5,2" d="M1729.06,-180C1736.31,-180 1741.38,-180 1741.38,-180 1741.38,-180 1741.38,-104 1741.38,-104 1741.38,-104 1889.08,-104 1889.08,-104"/>
<polygon fill="black" stroke="black" points="1889.08,-107.5 1899.08,-104 1889.08,-100.5 1889.08,-107.5"/>
</g>
<!-- CodeBoxComponent -->
<g id="node14" class="node">
<title>CodeBoxComponent</title>
<polygon fill="#ffffb3" stroke="black" points="1432.22,-198 1297.78,-198 1297.78,-162 1432.22,-162 1432.22,-198"/>
<text text-anchor="middle" x="1365" y="-175.8" font-family="Times,serif" font-size="14.00">CodeBoxComponent</text>
</g>
<!-- CodeBoxComponent&#45;&gt;CodeBoxModule -->
<g id="edge12" class="edge">
<title>CodeBoxComponent&#45;&gt;CodeBoxModule</title>
<path fill="none" stroke="black" d="M1350.05,-198.22C1350.05,-198.22 1350.05,-219.73 1350.05,-219.73"/>
<polygon fill="black" stroke="black" points="1346.55,-219.73 1350.05,-229.73 1353.55,-219.73 1346.55,-219.73"/>
</g>
<!-- CodeBoxComponent  -->
<g id="node16" class="node">
<title>CodeBoxComponent </title>
<polygon fill="#fb8072" stroke="black" points="1435.72,-331 1298.28,-331 1298.28,-295 1435.72,-295 1435.72,-331"/>
<text text-anchor="middle" x="1367" y="-308.8" font-family="Times,serif" font-size="14.00">CodeBoxComponent </text>
</g>
<!-- CodeBoxModule&#45;&gt;CodeBoxComponent  -->
<g id="edge14" class="edge">
<title>CodeBoxModule&#45;&gt;CodeBoxComponent </title>
<path fill="none" stroke="black" stroke-dasharray="5,2" d="M1350.18,-266.11C1350.18,-266.11 1350.18,-284.99 1350.18,-284.99"/>
<polygon fill="black" stroke="black" points="1346.68,-284.99 1350.18,-294.99 1353.68,-284.99 1346.68,-284.99"/>
</g>
<!-- CodeBoxModule&#45;&gt;GeneratorModule -->
<g id="edge18" class="edge">
<title>CodeBoxModule&#45;&gt;GeneratorModule</title>
<path fill="none" stroke="black" d="M1295.35,-266.49C1295.35,-278.14 1295.35,-291 1295.35,-291 1295.35,-291 507.85,-291 507.85,-291 507.85,-291 507.85,-291.38 507.85,-291.38"/>
<polygon fill="black" stroke="black" points="504.35,-284.83 507.85,-294.83 511.35,-284.83 504.35,-284.83"/>
</g>
<!-- CodeBoxModule&#45;&gt;PaymentsModule -->
<g id="edge27" class="edge">
<title>CodeBoxModule&#45;&gt;PaymentsModule</title>
<path fill="none" stroke="black" d="M1292.57,-266.11C1292.57,-275.9 1292.57,-286 1292.57,-286 1292.57,-286 139,-286 139,-286 139,-286 139,-286.88 139,-286.88"/>
<polygon fill="black" stroke="black" points="135.5,-284.84 139,-294.84 142.5,-284.84 135.5,-284.84"/>
</g>
<!-- GeneratorComponent -->
<g id="node17" class="node">
<title>GeneratorComponent</title>
<polygon fill="#ffffb3" stroke="black" points="543.79,-266 406.21,-266 406.21,-230 543.79,-230 543.79,-266"/>
<text text-anchor="middle" x="475" y="-243.8" font-family="Times,serif" font-size="14.00">GeneratorComponent</text>
</g>
<!-- GeneratorComponent&#45;&gt;GeneratorModule -->
<g id="edge15" class="edge">
<title>GeneratorComponent&#45;&gt;GeneratorModule</title>
<path fill="none" stroke="black" d="M472.05,-266.11C472.05,-266.11 472.05,-284.99 472.05,-284.99"/>
<polygon fill="black" stroke="black" points="468.55,-284.99 472.05,-294.99 475.55,-284.99 468.55,-284.99"/>
</g>
<!-- RouterModule  -->
<g id="node20" class="node">
<title>RouterModule </title>
<polygon fill="#fb8072" stroke="black" points="422.65,-399 321.35,-399 321.35,-363 422.65,-363 422.65,-399"/>
<text text-anchor="middle" x="372" y="-376.8" font-family="Times,serif" font-size="14.00">RouterModule </text>
</g>
<!-- GeneratorModule&#45;&gt;RouterModule  -->
<g id="edge21" class="edge">
<title>GeneratorModule&#45;&gt;RouterModule </title>
<path fill="none" stroke="black" stroke-dasharray="5,2" d="M436.2,-325C423.86,-325 414.46,-325 414.46,-325 414.46,-325 414.46,-352.97 414.46,-352.97"/>
<polygon fill="black" stroke="black" points="410.96,-352.97 414.46,-362.97 417.96,-352.97 410.96,-352.97"/>
</g>
<!-- RouterModule.forChild(args) -->
<g id="node19" class="node">
<title>RouterModule.forChild(args)</title>
<polygon fill="#8dd3c7" stroke="black" points="381.73,-266 378.73,-270 357.73,-270 354.73,-266 200.27,-266 200.27,-230 381.73,-230 381.73,-266"/>
<text text-anchor="middle" x="291" y="-243.8" font-family="Times,serif" font-size="14.00">RouterModule.forChild(args)</text>
</g>
<!-- RouterModule.forChild(args)&#45;&gt;GeneratorModule -->
<g id="edge17" class="edge">
<title>RouterModule.forChild(args)&#45;&gt;GeneratorModule</title>
<path fill="none" stroke="black" d="M361.55,-266.24C361.55,-281.57 361.55,-301 361.55,-301 361.55,-301 426.29,-301 426.29,-301"/>
<polygon fill="black" stroke="black" points="426.29,-304.5 436.29,-301 426.29,-297.5 426.29,-304.5"/>
</g>
<!-- RouterModule.forChild(args)&#45;&gt;PaymentsModule -->
<g id="edge24" class="edge">
<title>RouterModule.forChild(args)&#45;&gt;PaymentsModule</title>
<path fill="none" stroke="black" d="M260.9,-266.02C260.9,-283.37 260.9,-307 260.9,-307 260.9,-307 168.28,-307 168.28,-307"/>
<polygon fill="black" stroke="black" points="168.28,-303.5 158.28,-307 168.28,-310.5 168.28,-303.5"/>
</g>
<!-- PaymentsComponent -->
<g id="node21" class="node">
<title>PaymentsComponent</title>
<polygon fill="#ffffb3" stroke="black" points="159.77,-266 24.23,-266 24.23,-230 159.77,-230 159.77,-266"/>
<text text-anchor="middle" x="92" y="-243.8" font-family="Times,serif" font-size="14.00">PaymentsComponent</text>
</g>
<!-- PaymentsComponent&#45;&gt;PaymentsModule -->
<g id="edge22" class="edge">
<title>PaymentsComponent&#45;&gt;PaymentsModule</title>
<path fill="none" stroke="black" d="M63,-266.11C63,-266.11 63,-284.99 63,-284.99"/>
<polygon fill="black" stroke="black" points="59.5,-284.99 63,-294.99 66.5,-284.99 59.5,-284.99"/>
</g>
<!-- PaymentsModule&#45;&gt;RouterModule  -->
<g id="edge29" class="edge">
<title>PaymentsModule&#45;&gt;RouterModule </title>
<path fill="none" stroke="black" stroke-dasharray="5,2" d="M157.99,-319C229.11,-319 341.49,-319 341.49,-319 341.49,-319 341.49,-352.73 341.49,-352.73"/>
<polygon fill="black" stroke="black" points="337.99,-352.73 341.49,-362.73 344.99,-352.73 337.99,-352.73"/>
</g>
<!-- TopbarComponent -->
<g id="node23" class="node">
<title>TopbarComponent</title>
<polygon fill="#ffffb3" stroke="black" points="2292.76,-122 2171.24,-122 2171.24,-86 2292.76,-86 2292.76,-122"/>
<text text-anchor="middle" x="2232" y="-99.8" font-family="Times,serif" font-size="14.00">TopbarComponent</text>
</g>
<!-- TopbarComponent&#45;&gt;TopbarModule -->
<g id="edge30" class="edge">
<title>TopbarComponent&#45;&gt;TopbarModule</title>
<path fill="none" stroke="black" d="M2232,-122.04C2232,-134.56 2232,-149 2232,-149 2232,-149 1703.99,-149 1703.99,-149 1703.99,-149 1703.99,-151.97 1703.99,-151.97"/>
<polygon fill="black" stroke="black" points="1700.49,-151.97 1703.99,-161.97 1707.49,-151.97 1700.49,-151.97"/>
</g>
<!-- RouterModule -->
<g id="node24" class="node">
<title>RouterModule</title>
<polygon fill="#8dd3c7" stroke="black" points="2146.65,-122 2143.65,-126 2122.65,-126 2119.65,-122 2049.35,-122 2049.35,-86 2146.65,-86 2146.65,-122"/>
<text text-anchor="middle" x="2098" y="-99.8" font-family="Times,serif" font-size="14.00">RouterModule</text>
</g>
<!-- RouterModule&#45;&gt;TopbarModule -->
<g id="edge32" class="edge">
<title>RouterModule&#45;&gt;TopbarModule</title>
<path fill="none" stroke="black" d="M2098,-122.24C2098,-129.43 2098,-136 2098,-136 2098,-136 1679,-136 1679,-136 1679,-136 1679,-151.85 1679,-151.85"/>
<polygon fill="black" stroke="black" points="1675.5,-151.85 1679,-161.85 1682.5,-151.85 1675.5,-151.85"/>
</g>
</g>
</svg>
